<?xml version="1.0" encoding="UTF-8"?>
<svg width="186px" height="44px" viewBox="0 0 186 44" version="1.1" xmlns="http://www.w3.org/2000/svg" xmlns:xlink="http://www.w3.org/1999/xlink">
    <title>编组 8</title>
    <g id="控件" stroke="none" stroke-width="1" fill="none" fill-rule="evenodd">
        <g id="编组-8" fill-rule="nonzero">
            <polygon id="Fill-94" fill="#262626" points="21.4615385 7.23283871 21.4615385 1.65 0 1.65 0 33 5.64330164 33 5.64330164 19.7444335 20.1683623 19.7444335 20.1683623 14.0678355 6.07748664 14.0678355 6.07748664 7.23283871"></polygon>
            <polygon id="Fill-108" fill="#262626" points="24.763314 32.88945 30.151811 32.88945 30.151811 0 24.763314 0"></polygon>
            <path d="M43.8772896,27.9147 C42.682047,27.9147 41.6623488,27.69525 40.8479109,27.26185 C40.0890529,26.85925 39.7043961,26.4517 39.7043961,26.04965 C39.7043961,25.38305 40.3460411,24.89025 41.6111713,24.5828 C42.9940647,24.2473 45.144621,24.0768 48.0028577,24.0768 L48.2433369,24.0768 L48.2433369,26.67335 C46.989763,27.49725 45.5215736,27.9147 43.8772896,27.9147 M52.4784139,13.80775 C52.015615,13.0933 51.4020352,12.4894 50.6552837,12.0131 C49.9162363,11.54175 48.93726,11.15895 47.7458695,10.87515 C46.5627334,10.593 45.1715855,10.45 43.6103961,10.45 C40.7428044,10.45 38.3539701,10.9164 35.6877866,11.8349 L34.6945026,12.17425 L35.9244139,16.907 L37.0437156,16.60065 C39.6603724,15.9808 41.7861653,15.66565 43.3616624,15.66565 C44.4760115,15.66565 45.4016091,15.76685 46.1125914,15.96595 C46.7894553,16.1557 47.2731653,16.43015 47.5499642,16.7816 C47.8399701,17.14955 48.0292719,17.49715 48.1123665,17.81505 C48.1993133,18.1478 48.2433369,18.5779 48.2433369,19.0938 L48.2433369,19.5492 C46.6749937,19.5679 45.2464257,19.63225 43.9928517,19.74005 C42.6605855,19.855 41.3140115,20.06565 39.9916505,20.3665 C38.6560825,20.6701 37.5263251,21.06775 36.6348458,21.54845 C35.7263074,22.0374 34.9817571,22.7007 34.4215559,23.51855 C33.8553014,24.3463 33.568047,25.3275 33.568047,26.4352 C33.568047,28.2161 34.4364139,29.77315 36.1483843,31.06345 C37.8361417,32.3356 40.0604375,32.98075 42.7596387,32.98075 C45.0587748,32.98075 47.1537511,32.44065 48.9950411,31.3753 L48.9950411,32.55285 L53.6830115,32.55285 L53.6830115,18.40905 C53.6830115,17.523 53.5977156,16.70625 53.4287748,15.9819 C53.2576328,15.24875 52.9384612,14.51725 52.4784139,13.80775" id="Fill-95" fill="#262626"></path>
            <path d="M106.257178,17.24305 C106.13226,16.5275 105.957266,15.89225 105.735497,15.35545 C105.513178,14.8181 105.185201,14.245 104.759272,13.6521 C104.325639,13.0493 103.801758,12.5466 103.203036,12.1583 C102.608716,11.7744 101.846006,11.44935 100.936367,11.1936 C100.026728,10.93785 99.3636215,10.8086 98.2278108,10.8086 C96.0921126,10.8086 93.7649114,11.26455 91.3050889,12.16435 L91.3050889,0 L85.846154,0 L85.846154,32.88945 L91.3050889,32.88945 L91.3050889,17.3316 C93.271296,16.60615 95.0570061,16.23875 96.6159942,16.23875 C99.6261126,16.23875 101.089349,17.55545 101.089349,20.2653 L101.089349,32.88945 L106.508663,32.88945 L106.508663,20.5865 C106.508663,19.98535 106.497657,19.45185 106.475645,18.99975 C106.453633,18.54215 106.380444,17.95145 106.257178,17.24305" id="Fill-102" fill="#262626"></path>
            <polygon id="路径" fill="#0066FF" points="82.4786783 18.5595223 60.673013 37.3604111 69.6499051 13.765116"></polygon>
            <polygon id="路径" fill="#00CE00" points="56.680473 18.559522 78.6268711 0 69.6498869 23.5289785"></polygon>
            <path d="M130.645528,12.7476749 C130.433456,13.2157042 130.111824,13.6040807 129.687681,13.9029163 C129.242928,14.2171332 128.752615,14.481361 128.229758,14.6879092 C127.707987,14.8933587 127.052789,15.0466218 126.282065,15.1433039 C125.491814,15.2427327 124.742784,15.3108497 124.056129,15.3454575 C122.796718,15.4102784 121.052417,15.4371956 118.944178,15.3119483 L118.863906,15.3119483 L118.863906,7.15 L122.978416,7.15 C123.768124,7.15 124.475932,7.1681279 125.081231,7.20328503 C125.678936,7.23844216 126.317319,7.3027138 126.977398,7.39390262 C127.622833,7.48399277 128.177147,7.62571997 128.625697,7.81523889 C129.078044,8.00750446 129.502729,8.24591378 129.886193,8.52497353 C130.245792,8.78755337 130.518068,9.13143408 130.695969,9.54837572 C130.87821,9.97740261 130.970415,10.4855331 130.970415,11.0595831 C130.970415,11.7033981 130.860853,12.2714056 130.645528,12.7476749 M137.250646,7.9869087 C137.036391,7.20297839 136.761792,6.51447343 136.434043,5.93914736 C136.101866,5.35827331 135.656195,4.82622153 135.108103,4.35963597 C134.568315,3.9013724 134.037385,3.52299981 133.529707,3.23505937 C133.017047,2.94489975 132.393108,2.69246642 131.675051,2.48386218 C130.968621,2.28025112 130.33527,2.12157874 129.792714,2.01283823 C129.245728,1.90298813 128.58691,1.81754915 127.835082,1.75874051 C127.090452,1.70104146 126.484228,1.66830835 126.034128,1.66054117 C125.585689,1.65332879 125.043687,1.65 124.407567,1.65 L113.101915,1.65 L113.101915,15.4755791 L110.059172,15.4755791 L110.059172,20.8704399 L113.101915,20.8704399 L113.101915,33 L119.104911,33 L119.104911,21.0507495 C120.140751,21.0995717 120.941851,21.1239829 121.488283,21.1239829 C122.705159,21.1239829 123.798022,21.0984621 124.735869,21.0479755 C125.684235,20.9974888 126.74388,20.8870839 127.88657,20.7200895 C129.036457,20.5525404 130.060116,20.3189702 130.929867,20.0260366 C131.803493,19.7319934 132.680994,19.3186685 133.536904,18.7977127 C134.405548,18.2695445 135.130248,17.6304166 135.689413,16.8975277 C136.24581,16.1690773 136.704214,15.2592077 137.051893,14.1923302 C137.397911,13.1282266 137.573965,11.918211 137.573965,10.5961261 C137.573965,9.65241386 137.4649,8.7747226 137.250646,7.9869087" id="Fill-91" fill="#00CE00"></path>
            <path d="M149.534095,27.9147 C148.338852,27.9147 147.319154,27.69525 146.504716,27.26185 C145.745858,26.85925 145.361201,26.4517 145.361201,26.04965 C145.361201,25.38305 146.002846,24.89025 147.267976,24.5828 C148.65087,24.2473 150.801426,24.0768 153.659663,24.0768 L153.900142,24.0768 L153.900142,26.67335 C152.646568,27.49725 151.178379,27.9147 149.534095,27.9147 M158.135219,13.80775 C157.67242,13.0933 157.05884,12.4894 156.312089,12.0131 C155.573041,11.54175 154.594065,11.15895 153.402674,10.87515 C152.219538,10.593 150.82839,10.45 149.267201,10.45 C146.399609,10.45 144.010775,10.9164 141.344592,11.8349 L140.351308,12.17425 L141.581219,16.907 L142.700521,16.60065 C145.317177,15.9808 147.44297,15.66565 149.018467,15.66565 C150.132816,15.66565 151.058414,15.76685 151.769396,15.96595 C152.44626,16.1557 152.92997,16.43015 153.206769,16.7816 C153.496775,17.14955 153.686077,17.49715 153.769171,17.81505 C153.856118,18.1478 153.900142,18.5779 153.900142,19.0938 L153.900142,19.5492 C152.331799,19.5679 150.903231,19.63225 149.649657,19.74005 C148.31739,19.855 146.970816,20.06565 145.648456,20.3665 C144.312887,20.6701 143.18313,21.06775 142.291651,21.54845 C141.383112,22.0374 140.638562,22.7007 140.078361,23.51855 C139.512106,24.3463 139.224852,25.3275 139.224852,26.4352 C139.224852,28.2161 140.093219,29.77315 141.805189,31.06345 C143.492947,32.3356 145.717243,32.98075 148.416444,32.98075 C150.71558,32.98075 152.810556,32.44065 154.651846,31.3753 L154.651846,32.55285 L159.339816,32.55285 L159.339816,18.40905 C159.339816,17.523 159.254521,16.70625 159.08558,15.9819 C158.914438,15.24875 158.595266,14.51725 158.135219,13.80775" id="Fill-95" fill="#00CE00"></path>
            <polygon id="Fill-119" fill="#00CE00" points="173.36906 26.24545 166.111758 10.45 160.686391 10.45 170.78487 32.04245 166.192651 43.51105 171.693959 43.51105 185.721551 10.45 180.333054 10.45"></polygon>
        </g>
    </g>
</svg>